<mxfile host="app.diagrams.net" modified="2023-12-26T23:41:36.631Z" agent="Mozilla/5.0 (Macintosh; Intel Mac OS X 10_15_7) AppleWebKit/537.36 (KHTML, like Gecko) Chrome/120.0.0.0 Safari/537.36" etag="_0KPk5BICptkgoC7I1VL" version="22.1.12" type="github">
  <diagram name="PÃ¡gina-1" id="fB_Sot-Bk7cszhIMP5Yf">
    <mxGraphModel dx="3695" dy="1640" grid="1" gridSize="10" guides="1" tooltips="1" connect="1" arrows="1" fold="1" page="1" pageScale="1" pageWidth="827" pageHeight="1169" math="0" shadow="0">
      <root>
        <mxCell id="0" />
        <mxCell id="1" parent="0" />
        <mxCell id="HXsVVwjvpqZ5MyK_3_nA-1" value="" style="verticalLabelPosition=bottom;html=1;verticalAlign=top;align=center;strokeColor=none;fillColor=#00BEF2;shape=mxgraph.azure.user;" vertex="1" parent="1">
          <mxGeometry x="390" y="40" width="47.5" height="50" as="geometry" />
        </mxCell>
        <mxCell id="HXsVVwjvpqZ5MyK_3_nA-2" value="DNS - dominio.com" style="rounded=0;whiteSpace=wrap;html=1;" vertex="1" parent="1">
          <mxGeometry x="269" y="111" width="290" height="60" as="geometry" />
        </mxCell>
        <mxCell id="HXsVVwjvpqZ5MyK_3_nA-3" value="CDN&amp;nbsp; + WAF" style="rounded=0;whiteSpace=wrap;html=1;" vertex="1" parent="1">
          <mxGeometry x="269" y="180" width="290" height="60" as="geometry" />
        </mxCell>
        <mxCell id="HXsVVwjvpqZ5MyK_3_nA-36" value="" style="rounded=0;whiteSpace=wrap;html=1;" vertex="1" parent="1">
          <mxGeometry x="50" y="585" width="720" height="175" as="geometry" />
        </mxCell>
        <mxCell id="HXsVVwjvpqZ5MyK_3_nA-12" value="NO SQL" style="shape=datastore;whiteSpace=wrap;html=1;fillColor=#d5e8d4;gradientColor=#97d077;strokeColor=#82b366;" vertex="1" parent="1">
          <mxGeometry x="104" y="610" width="90" height="120" as="geometry" />
        </mxCell>
        <mxCell id="HXsVVwjvpqZ5MyK_3_nA-28" value="NO SQL" style="shape=datastore;whiteSpace=wrap;html=1;fillColor=#d5e8d4;gradientColor=#97d077;strokeColor=#82b366;" vertex="1" parent="1">
          <mxGeometry x="284" y="610" width="90" height="120" as="geometry" />
        </mxCell>
        <mxCell id="HXsVVwjvpqZ5MyK_3_nA-29" value="NO SQL" style="shape=datastore;whiteSpace=wrap;html=1;fillColor=#d5e8d4;gradientColor=#97d077;strokeColor=#82b366;" vertex="1" parent="1">
          <mxGeometry x="470" y="610" width="90" height="120" as="geometry" />
        </mxCell>
        <mxCell id="HXsVVwjvpqZ5MyK_3_nA-30" value="NO SQL" style="shape=datastore;whiteSpace=wrap;html=1;fillColor=#d5e8d4;gradientColor=#97d077;strokeColor=#82b366;" vertex="1" parent="1">
          <mxGeometry x="634" y="610" width="90" height="120" as="geometry" />
        </mxCell>
        <mxCell id="HXsVVwjvpqZ5MyK_3_nA-37" value="" style="rounded=0;whiteSpace=wrap;html=1;" vertex="1" parent="1">
          <mxGeometry x="50" y="790" width="720" height="230" as="geometry" />
        </mxCell>
        <mxCell id="HXsVVwjvpqZ5MyK_3_nA-32" value="&lt;font style=&quot;font-size: 21px;&quot;&gt;Proxy de base de datos&lt;/font&gt;" style="rounded=0;whiteSpace=wrap;html=1;" vertex="1" parent="1">
          <mxGeometry x="78" y="810" width="672" height="60" as="geometry" />
        </mxCell>
        <mxCell id="HXsVVwjvpqZ5MyK_3_nA-34" value="Master" style="shape=mxgraph.cisco.storage.relational_database;html=1;pointerEvents=1;dashed=0;fillColor=#036897;strokeColor=#ffffff;strokeWidth=2;verticalLabelPosition=bottom;verticalAlign=top;align=center;outlineConnect=0;" vertex="1" parent="1">
          <mxGeometry x="200" y="890" width="110" height="90" as="geometry" />
        </mxCell>
        <mxCell id="HXsVVwjvpqZ5MyK_3_nA-35" value="Slave" style="shape=mxgraph.cisco.storage.relational_database;html=1;pointerEvents=1;dashed=0;fillColor=#036897;strokeColor=#ffffff;strokeWidth=2;verticalLabelPosition=bottom;verticalAlign=top;align=center;outlineConnect=0;" vertex="1" parent="1">
          <mxGeometry x="498" y="890" width="110" height="90" as="geometry" />
        </mxCell>
        <mxCell id="HXsVVwjvpqZ5MyK_3_nA-38" value="&lt;font style=&quot;font-size: 18px;&quot;&gt;NON-Relational&lt;/font&gt;" style="text;html=1;strokeColor=none;fillColor=none;align=center;verticalAlign=middle;whiteSpace=wrap;rounded=0;" vertex="1" parent="1">
          <mxGeometry x="-140" y="630" width="150" height="30" as="geometry" />
        </mxCell>
        <mxCell id="HXsVVwjvpqZ5MyK_3_nA-42" value="" style="rounded=0;whiteSpace=wrap;html=1;dashed=1;dashPattern=8 8;" vertex="1" parent="1">
          <mxGeometry y="340" width="830" height="220" as="geometry" />
        </mxCell>
        <mxCell id="HXsVVwjvpqZ5MyK_3_nA-39" value="&lt;span style=&quot;font-size: 18px;&quot;&gt;Relational&lt;/span&gt;" style="text;html=1;strokeColor=none;fillColor=none;align=center;verticalAlign=middle;whiteSpace=wrap;rounded=0;" vertex="1" parent="1">
          <mxGeometry x="-140" y="800" width="150" height="30" as="geometry" />
        </mxCell>
        <mxCell id="HXsVVwjvpqZ5MyK_3_nA-21" style="edgeStyle=orthogonalEdgeStyle;rounded=0;orthogonalLoop=1;jettySize=auto;html=1;" edge="1" parent="1" source="HXsVVwjvpqZ5MyK_3_nA-4" target="HXsVVwjvpqZ5MyK_3_nA-7">
          <mxGeometry relative="1" as="geometry" />
        </mxCell>
        <mxCell id="HXsVVwjvpqZ5MyK_3_nA-22" style="edgeStyle=orthogonalEdgeStyle;rounded=0;orthogonalLoop=1;jettySize=auto;html=1;" edge="1" parent="1" source="HXsVVwjvpqZ5MyK_3_nA-4" target="HXsVVwjvpqZ5MyK_3_nA-11">
          <mxGeometry relative="1" as="geometry">
            <mxPoint x="590" y="290" as="targetPoint" />
          </mxGeometry>
        </mxCell>
        <mxCell id="HXsVVwjvpqZ5MyK_3_nA-25" style="edgeStyle=orthogonalEdgeStyle;rounded=0;orthogonalLoop=1;jettySize=auto;html=1;exitX=0.25;exitY=1;exitDx=0;exitDy=0;" edge="1" parent="1" source="HXsVVwjvpqZ5MyK_3_nA-4" target="HXsVVwjvpqZ5MyK_3_nA-9">
          <mxGeometry relative="1" as="geometry" />
        </mxCell>
        <mxCell id="HXsVVwjvpqZ5MyK_3_nA-4" value="API Gate Way" style="rounded=0;whiteSpace=wrap;html=1;" vertex="1" parent="1">
          <mxGeometry x="269" y="250" width="290" height="60" as="geometry" />
        </mxCell>
        <mxCell id="HXsVVwjvpqZ5MyK_3_nA-7" value="Saldos&lt;br&gt;" style="html=1;outlineConnect=0;whiteSpace=wrap;fillColor=#dae8fc;shape=mxgraph.archimate3.function;gradientColor=#7ea6e0;strokeColor=#6c8ebf;" vertex="1" parent="1">
          <mxGeometry x="78" y="430" width="140" height="120" as="geometry" />
        </mxCell>
        <mxCell id="HXsVVwjvpqZ5MyK_3_nA-9" value="Cash In" style="html=1;outlineConnect=0;whiteSpace=wrap;fillColor=#f8cecc;shape=mxgraph.archimate3.function;gradientColor=#ea6b66;strokeColor=#b85450;" vertex="1" parent="1">
          <mxGeometry x="258" y="430" width="140" height="120" as="geometry" />
        </mxCell>
        <mxCell id="HXsVVwjvpqZ5MyK_3_nA-10" value="Cash Out" style="html=1;outlineConnect=0;whiteSpace=wrap;fillColor=#e6d0de;shape=mxgraph.archimate3.function;gradientColor=#d5739d;strokeColor=#996185;" vertex="1" parent="1">
          <mxGeometry x="437.5" y="430" width="140" height="120" as="geometry" />
        </mxCell>
        <mxCell id="HXsVVwjvpqZ5MyK_3_nA-11" value="Payments" style="html=1;outlineConnect=0;whiteSpace=wrap;fillColor=#fff2cc;shape=mxgraph.archimate3.function;gradientColor=#ffd966;strokeColor=#d6b656;" vertex="1" parent="1">
          <mxGeometry x="608" y="430" width="140" height="120" as="geometry" />
        </mxCell>
        <mxCell id="HXsVVwjvpqZ5MyK_3_nA-26" style="edgeStyle=orthogonalEdgeStyle;rounded=0;orthogonalLoop=1;jettySize=auto;html=1;exitX=0.75;exitY=1;exitDx=0;exitDy=0;entryX=0.5;entryY=0;entryDx=0;entryDy=0;entryPerimeter=0;" edge="1" parent="1" source="HXsVVwjvpqZ5MyK_3_nA-4" target="HXsVVwjvpqZ5MyK_3_nA-10">
          <mxGeometry relative="1" as="geometry" />
        </mxCell>
        <mxCell id="HXsVVwjvpqZ5MyK_3_nA-48" value="&lt;font style=&quot;font-size: 19px;&quot;&gt;Orquestador&lt;br&gt;de funciones&lt;/font&gt;" style="text;html=1;strokeColor=none;fillColor=none;align=center;verticalAlign=middle;whiteSpace=wrap;rounded=0;" vertex="1" parent="1">
          <mxGeometry x="700" y="360" width="110" height="50" as="geometry" />
        </mxCell>
        <mxCell id="HXsVVwjvpqZ5MyK_3_nA-55" style="edgeStyle=orthogonalEdgeStyle;rounded=0;orthogonalLoop=1;jettySize=auto;html=1;" edge="1" parent="1" source="HXsVVwjvpqZ5MyK_3_nA-52" target="HXsVVwjvpqZ5MyK_3_nA-42">
          <mxGeometry relative="1" as="geometry" />
        </mxCell>
        <mxCell id="HXsVVwjvpqZ5MyK_3_nA-53" value="Text" style="text;html=1;strokeColor=none;fillColor=none;align=center;verticalAlign=middle;whiteSpace=wrap;rounded=0;" vertex="1" parent="1">
          <mxGeometry x="620" y="500" width="60" height="30" as="geometry" />
        </mxCell>
        <mxCell id="HXsVVwjvpqZ5MyK_3_nA-56" value="" style="group" vertex="1" connectable="0" parent="1">
          <mxGeometry x="-160" y="410" width="80" height="120" as="geometry" />
        </mxCell>
        <mxCell id="HXsVVwjvpqZ5MyK_3_nA-52" value="" style="image;aspect=fixed;perimeter=ellipsePerimeter;html=1;align=center;shadow=0;dashed=0;fontColor=#4277BB;labelBackgroundColor=default;fontSize=12;spacingTop=3;image=img/lib/ibm/devops/build_test.svg;" vertex="1" parent="HXsVVwjvpqZ5MyK_3_nA-56">
          <mxGeometry width="80" height="80" as="geometry" />
        </mxCell>
        <mxCell id="HXsVVwjvpqZ5MyK_3_nA-54" value="&lt;font style=&quot;font-size: 17px;&quot;&gt;CI / CD&lt;/font&gt;" style="text;html=1;strokeColor=none;fillColor=none;align=center;verticalAlign=middle;whiteSpace=wrap;rounded=0;" vertex="1" parent="HXsVVwjvpqZ5MyK_3_nA-56">
          <mxGeometry x="10" y="90" width="60" height="30" as="geometry" />
        </mxCell>
        <mxCell id="HXsVVwjvpqZ5MyK_3_nA-63" value="" style="group" vertex="1" connectable="0" parent="1">
          <mxGeometry x="-320" y="410" width="90" height="120" as="geometry" />
        </mxCell>
        <mxCell id="HXsVVwjvpqZ5MyK_3_nA-51" value="" style="verticalLabelPosition=bottom;html=1;verticalAlign=top;align=center;strokeColor=none;fillColor=#00BEF2;shape=mxgraph.azure.git_repository;" vertex="1" parent="HXsVVwjvpqZ5MyK_3_nA-63">
          <mxGeometry x="5" width="80" height="80" as="geometry" />
        </mxCell>
        <mxCell id="HXsVVwjvpqZ5MyK_3_nA-60" value="&lt;font style=&quot;font-size: 15px;&quot;&gt;Repositorios&lt;/font&gt;" style="text;html=1;strokeColor=none;fillColor=none;align=center;verticalAlign=middle;whiteSpace=wrap;rounded=0;" vertex="1" parent="HXsVVwjvpqZ5MyK_3_nA-63">
          <mxGeometry y="90" width="90" height="30" as="geometry" />
        </mxCell>
        <mxCell id="HXsVVwjvpqZ5MyK_3_nA-64" style="edgeStyle=orthogonalEdgeStyle;rounded=0;orthogonalLoop=1;jettySize=auto;html=1;" edge="1" parent="1" source="HXsVVwjvpqZ5MyK_3_nA-51" target="HXsVVwjvpqZ5MyK_3_nA-52">
          <mxGeometry relative="1" as="geometry" />
        </mxCell>
      </root>
    </mxGraphModel>
  </diagram>
</mxfile>
